<svg width="659" height="539" xmlns="http://www.w3.org/2000/svg" xmlns:xlink="http://www.w3.org/1999/xlink" overflow="hidden"><defs><clipPath id="clip0"><rect x="1767" y="772" width="659" height="539"/></clipPath></defs><g clip-path="url(#clip0)" transform="translate(-1767 -772)"><path d="M2058.64 1037.46C2057.34 1034.62 2056.32 1030.62 2056.37 1028.55 2056.42 1026.46 2057.8 1027.87 2059.48 1031.75 2063.83 1041.74 2071.22 1043.46 2077.66 1035.98 2084.4 1028.14 2084.14 1020.7 2076.94 1015.04 2072 1011.16 2071.75 1010.47 2075.28 1010.51 2077.57 1010.53 2081.78 1013.01 2084.63 1016.02 2087.49 1019.03 2088.73 1021.49 2087.39 1021.49 2086.05 1021.49 2084.95 1024.02 2084.95 1027.1 2084.95 1040.83 2063.94 1049.1 2058.64 1037.46ZM2048.94 1033.25C2048.13 1032.44 2047.47 1028.55 2047.47 1024.61 2047.47 1020.67 2046.51 1017.12 2045.33 1016.71 2044.16 1016.31 2045.63 1014.84 2048.59 1013.45 2053.48 1011.16 2053.79 1011.31 2051.83 1014.96 2048.88 1020.48 2049.12 1028.87 2052.32 1032.07 2053.9 1033.65 2054.05 1034.72 2052.68 1034.72 2051.43 1034.72 2049.74 1034.05 2048.94 1033.25ZM2069.52 1032.51C2069.52 1031.3 2070.54 1030.31 2071.79 1030.31 2073.04 1030.31 2074.97 1028.08 2076.06 1025.35 2077.94 1020.67 2078.06 1020.64 2078.2 1024.91 2078.34 1029.43 2074.61 1034.72 2071.28 1034.72 2070.31 1034.72 2069.52 1033.72 2069.52 1032.51ZM2057.18 1006.03C2057.99 999.956 2059.19 993.588 2059.84 991.881 2060.62 989.853 2059.25 988.524 2055.9 988.05 2051.66 987.449 2050.65 985.8 2050.06 978.534 2049.21 968.155 2047.17 965.289 2037.24 960.58 2033.16 958.645 2029.82 956.099 2029.82 954.921 2029.82 953.743 2034.45 955.362 2040.09 958.517 2046.69 962.202 2051.98 963.743 2054.88 962.824 2059.2 961.451 2059.23 961.553 2055.46 965.318 2053.04 967.741 2052.01 971.017 2052.78 973.875 2053.46 976.422 2054.03 979.63 2054.05 981.004 2054.07 982.379 2056.07 984.022 2058.49 984.656 2060.92 985.291 2062.45 985.072 2061.89 984.17 2060.59 982.056 2074.01 969.427 2088.81 958.851 2095.18 954.3 2100.39 950.087 2100.39 949.487 2100.39 947.415 2086.04 951.455 2082.57 954.504 2078.69 957.919 2076.13 958.448 2076.13 955.836 2076.13 953.214 2088.37 946.544 2093.18 946.544 2095.51 946.544 2099.74 944.064 2102.59 941.033 2108.13 935.139 2107.25 934.055 2100.05 937.905 2097.6 939.216 2095.14 939.826 2094.57 939.263 2093.05 937.737 2124.44 920.092 2128.68 920.092 2130.69 920.092 2127.37 922.687 2121.32 925.857 2109.27 932.166 2102.9 937.234 2110.31 934.609 2113.5 933.479 2112.59 935.296 2107 941.18 2097.98 950.69 2099.52 950.455 2115.17 939.931 2121.48 935.687 2127.07 930.232 2127.59 927.807 2128.11 925.382 2128.44 926.58 2128.33 930.468 2128.22 934.356 2127.71 937.119 2127.2 936.608 2126.69 936.096 2124.28 936.741 2121.85 938.041 2118.24 939.972 2117.99 940.8 2120.49 942.563 2122.8 944.197 2122.43 944.483 2118.97 943.738 2113.65 942.59 2087.73 960.942 2092.15 962.73 2094.29 963.593 2094.28 963.868 2092.12 964.004 2090.6 964.1 2088.93 963.929 2088.41 963.627 2085.93 962.195 2074.15 983.27 2075.32 987.048 2076.09 989.515 2075.72 990.632 2074.4 989.818 2073.14 989.042 2070.68 993.908 2068.68 1001.11 2065.28 1013.38 2065.21 1013.47 2066.29 1003.86 2066.9 998.4 2070.13 988.346 2073.47 981.514L2079.54 969.091 2071.95 975.35C2067.77 978.792 2064.11 983.886 2063.83 986.67 2061.72 1007.08 2059.77 1017.08 2057.9 1017.08 2056.56 1017.08 2056.28 1012.83 2057.18 1006.03ZM2004.12 1000.45C2002.14 995.284 2004.28 994.677 2007.32 999.547 2009.03 1002.27 2009.17 1003.86 2007.72 1003.86 2006.46 1003.86 2004.84 1002.32 2004.12 1000.45ZM2019.07 996.43C2021.32 991.481 2021.22 989.9 2018.45 987.132 2016.62 985.298 2012.91 983.632 2010.22 983.429 2006.18 983.124 2005.57 982.121 2006.69 977.625 2009.22 967.58 2019.16 953.182 2030.6 943.017L2041.95 932.928 2027.62 939.992C2019.7 943.895 2009.09 951.518 2003.91 957.026 1998.15 963.154 1994.54 965.66 1994.54 963.529 1994.54 955.907 2025.92 935.353 2045.02 930.468L2056.8 927.453 2049.93 924.875C2046.15 923.456 2040.05 921.17 2036.37 919.795 2032.69 918.419 2030.13 916.846 2030.68 916.299 2031.23 915.752 2040.28 918.811 2050.8 923.097L2069.92 930.891 2080.74 926.625C2093.31 921.675 2095.61 924.316 2083.3 929.549 2070.63 934.93 2064.3 936.401 2066.06 933.554 2067.09 931.892 2064.01 931.113 2056.42 931.113 2048.2 931.113 2045.26 931.946 2045.26 934.271 2045.26 936.008 2043.38 938.026 2041.08 938.755 2036.38 940.248 2016.59 960.606 2016.59 963.954 2016.59 965.148 2023.53 969.902 2032.01 974.52 2040.5 979.137 2047.44 983.633 2047.45 984.512 2047.47 987.075 2016.6 970.231 2016.52 967.634 2016.4 964.094 2010.14 975.786 2010.11 979.608 2010.09 981.824 2011.58 981.097 2014.64 977.404 2017.88 973.497 2018.83 973.064 2017.91 975.914 2017.19 978.141 2018.08 981.409 2019.91 983.236 2024.2 987.525 2024.13 995.937 2019.78 999.548 2016.72 1002.08 2016.65 1001.74 2019.07 996.43ZM1995.33 996.104C1994.62 994.265 1994.51 990.297 1995.09 987.286 1996.04 982.333 1995.31 981.414 1990.93 982 1990.16 982.104 1988.83 981.062 1987.98 979.686 1987.12 978.309 1984.04 977.032 1981.11 976.848 1978.19 976.664 1975.19 975.64 1974.45 974.573 1973.72 973.506 1967.02 972.08 1959.57 971.405 1945.25 970.107 1943.73 968.437 1949.46 960.26 1953.87 953.97 1958.08 953.73 1954.75 959.958 1951.64 965.776 1952.45 966.502 1964.63 968.777 1970.12 969.802 1980.21 972.907 1987.06 975.676 1999.29 980.626 1999.51 980.867 1999.92 990.078 2000.34 999.32 1997.83 1002.61 1995.33 996.104ZM2014.39 992.834C2014.39 988.719 2014.98 988.131 2017.03 990.188 2019.09 992.246 2019.09 993.422 2017.03 995.479 2014.98 997.536 2014.39 996.948 2014.39 992.834ZM2130.58 987.008C2129.78 986.209 2130.72 984.384 2132.68 982.952 2134.64 981.521 2136.99 976.463 2137.91 971.713 2139.39 964.011 2139.6 963.791 2139.81 969.688 2140.06 976.553 2133.13 989.556 2130.58 987.008ZM2114.58 984.247C2115.25 983.162 2114.32 981.705 2112.5 981.01 2110.69 980.315 2109.21 980.765 2109.21 982.012 2109.21 983.257 2108.22 983.664 2107 982.914 2105.79 982.165 2104.8 980.56 2104.8 979.348 2104.8 978.135 2105.79 977.757 2107 978.506 2108.29 979.298 2109.21 977.102 2109.21 973.255 2109.21 969.618 2108.22 966.029 2107 965.28 2105.79 964.531 2104.83 962.736 2104.87 961.292 2104.91 959.739 2106.05 960.122 2107.65 962.231 2109.89 965.163 2110.85 965.281 2113.08 962.894 2115.25 960.572 2114.81 959.312 2110.9 956.575 2108.22 954.694 2107.04 953.156 2108.3 953.156 2110.99 953.156 2115.99 957.14 2120.08 962.55 2122.7 966.012 2122.45 966.37 2117.78 965.856 2113.77 965.415 2112.36 966.476 2111.8 970.361 2110.95 976.324 2115.32 982.476 2119.32 980.941 2120.86 980.352 2123.43 981.547 2125.03 983.596 2127.62 986.901 2127.54 986.999 2124.29 984.46 2121.82 982.534 2120.16 982.354 2119.2 983.909 2118.41 985.181 2116.78 986.221 2115.56 986.221 2114.35 986.221 2113.91 985.333 2114.58 984.247ZM2133.08 971.509C2134.02 966.895 2134.57 966.341 2135.21 969.372 2135.69 971.622 2135.12 974.425 2133.94 975.6 2132.56 976.981 2132.26 975.534 2133.08 971.509ZM1979.11 959.562C1973.65 957.076 1963.73 953.624 1957.06 951.89L1944.93 948.737 1955.78 949.853C1965.82 950.887 1990.13 960.158 1990.13 962.954 1990.13 964.612 1990.33 964.674 1979.11 959.562ZM2046.91 958.905C2041.82 955.041 2042.02 953.299 2047.4 954.704 2052.08 955.927 2100.39 930.145 2100.39 926.425 2100.39 923.948 2083.16 916.294 2071.89 913.762 2066.57 912.566 2061.04 912.957 2055.32 914.936 2050.61 916.569 2046.36 917.52 2045.89 917.049 2045.42 916.578 2048.06 915.138 2051.76 913.848 2059.86 911.027 2060.58 909.282 2053.06 910.719 2049.89 911.326 2040.67 908.859 2030.85 904.771 2011.88 896.876 2004.81 896.704 2003.76 904.111 2002.65 911.915 1998.59 909.897 1999.36 901.924 1999.81 897.286 2001.38 894.528 2003.83 894.064 2005.9 893.671 2016.58 896.94 2027.55 901.328 2047.08 909.139 2052.84 909.742 2050.54 903.735 2049.22 900.312 2024.81 889.685 2002.58 882.854 1983.3 876.931 1982.73 876.97 1984.52 884.106 1985.84 889.347 1985.6 889.674 1982.44 887.049 1977.68 883.1 1979.31 867.342 1985.33 859.035 1989.41 853.408 2002.07 840.847 2030.28 814.453 2035.98 809.114 2042.43 804.599 2044.61 804.42 2046.79 804.241 2050.55 803.025 2052.98 801.719 2062.49 796.594 2131.26 785.293 2131.26 788.854 2131.26 789.761 2124.34 797.912 2115.88 806.967 2107.42 816.022 2097.47 827.25 2093.77 831.918 2087.84 839.406 2087.51 840.528 2090.96 841.446 2098.39 843.422 2122.22 842.868 2123.57 840.688 2125.45 837.655 2137.88 831.415 2137.86 833.516 2137.85 834.456 2134.72 837.004 2130.9 839.179 2122.63 843.885 2124.17 845.834 2138.98 849.42 2154.28 853.126 2157.65 856.604 2155.44 866.408 2154.47 870.709 2151.81 876.363 2149.52 878.974 2145.82 883.2 2141.91 891.363 2133.63 912.11 2132.23 915.601 2130.58 917.949 2129.96 917.328 2129 916.361 2133.63 901.593 2138.96 888.68 2140.2 885.67 2139.41 884.779 2135.35 884.624 2131.12 884.462 2131.5 884.037 2137.41 882.335 2141.85 881.054 2146.33 877.504 2148.97 873.165 2154.96 863.354 2154.74 859.72 2148.35 862.85 2143.88 865.037 2143.94 864.837 2148.89 860.86 2155.32 855.686 2156.64 856.394 2125.91 848.557 2101.71 842.385 2095.26 842.428 2114.98 848.632 2121.93 850.817 2126.46 852.993 2125.03 853.466 2123.61 853.939 2115.86 852.137 2107.82 849.459 2097.06 845.881 2090.19 844.911 2081.9 845.802 2069.79 847.101 2017.81 862.478 2000.65 869.838L1990.21 874.312 2014.24 882.663C2044.86 893.308 2050.33 895.967 2052.71 901.366 2054.47 905.373 2056.44 905.707 2074.76 905.114 2092.18 904.55 2096.85 903.505 2109.65 897.305 2117.78 893.368 2123.38 891.406 2122.1 892.946 2120.82 894.485 2114.33 898.406 2107.68 901.66 2098.55 906.126 2092.4 907.545 2082.55 907.452 2075.38 907.386 2069.53 907.969 2069.54 908.752 2069.57 909.903 2093.61 918.997 2101.26 920.745 2102.34 920.993 2104.26 917.724 2105.53 913.48 2107.28 907.586 2108.01 906.821 2108.61 910.241 2110.41 920.578 2103.35 930.165 2086.71 939.974 2077.86 945.189 2066.47 952.272 2061.4 955.715 2050.78 962.927 2051.89 962.683 2046.91 958.907ZM2057.39 847.455C2080.68 841.385 2084.51 839.71 2089.36 833.491 2092.39 829.604 2101.57 819.28 2109.76 810.55 2117.95 801.819 2124.64 794.015 2124.64 793.208 2124.64 791.164 2107.99 793.777 2079.44 800.304 2066.1 803.352 2052.36 806.144 2048.92 806.506 2045.37 806.881 2038.68 810.845 2033.48 815.659 1996.38 850.019 1982.19 865.465 1984.43 869.077 1985.09 870.159 1995.83 867.289 2008.28 862.699 2020.74 858.109 2042.83 851.25 2057.39 847.455ZM1996.73 859.473C2005.71 847.091 2032.47 819.271 2038.96 815.56 2044.92 812.149 2044.13 813.352 2034.89 821.733 2028.58 827.458 2016.69 839.284 2008.47 848.012 2000.26 856.74 1994.97 861.898 1996.73 859.473ZM2133.53 959.855C2131.74 958.728 2130.86 957.231 2131.56 956.53 2132.26 955.828 2134.09 956.766 2135.62 958.614 2138.81 962.446 2138.2 962.807 2133.53 959.855ZM2116.57 953.326C2110.42 948.335 2113.03 942.827 2119.26 947.651 2123.48 950.914 2123.48 950.944 2119.13 949.675 2114.8 948.41 2114.79 948.447 2118.97 951.852 2121.31 953.757 2122.8 955.736 2122.28 956.251 2121.76 956.764 2119.19 955.449 2116.57 953.326ZM1944.36 943.788C1945.76 939.539 1970.21 923.007 1981.31 918.805 1986.77 916.74 1991.5 914.844 1991.83 914.592 1992.15 914.341 1990.92 911.259 1989.08 907.745 1987.25 904.23 1985.78 898.875 1985.81 895.844 1985.86 890.546 1985.99 890.497 1989.07 894.574 1990.84 896.906 1992.9 902.114 1993.66 906.147 1994.54 910.846 1996.33 913.513 1998.65 913.576 2000.63 913.626 1998.79 914.953 1994.54 916.518 1978.58 922.406 1965.72 929.597 1956.24 937.934 1946.07 946.879 1942.82 948.483 1944.36 943.788ZM2051.88 939.931C2056.12 937.608 2060.59 935.707 2061.8 935.707 2063.01 935.707 2060.53 937.608 2056.29 939.931 2052.04 942.254 2047.58 944.154 2046.36 944.154 2045.15 944.154 2047.63 942.254 2051.88 939.931ZM2135.67 919.113C2135.67 918.315 2139.29 916.151 2143.71 914.304 2152.31 910.713 2195.29 907.464 2187.49 910.995 2185.06 912.093 2180.59 912.528 2177.54 911.962 2172.5 911.027 2148.97 915.429 2139.53 919.074 2137.41 919.893 2135.67 919.911 2135.67 919.116ZM2022.8 914.177C2024.39 913.541 2026.29 913.619 2027.02 914.351 2027.75 915.084 2026.45 915.605 2024.13 915.509 2021.56 915.403 2021.04 914.881 2022.8 914.177ZM2194.21 909.851C2197.18 906.642 2199.62 903.196 2199.62 902.192 2199.62 898.391 2185.3 893.19 2173.96 892.87 2167.48 892.687 2162.16 891.938 2162.15 891.204 2162.14 890.471 2167.61 884.693 2174.3 878.364 2184.82 868.423 2187.33 867.046 2192.79 868.244 2198.39 869.474 2200.06 868.424 2207.52 858.963 2212.16 853.096 2223.51 841.956 2232.76 834.208 2246.51 822.686 2249.4 819.189 2248.59 814.999 2248.06 812.181 2248.65 809.876 2249.93 809.876 2251.2 809.876 2252.56 812.581 2252.94 815.887 2253.38 819.655 2255.7 822.932 2259.15 824.671L2264.67 827.445 2259.04 827.479C2255.95 827.495 2252.48 826.578 2251.33 825.437 2249.07 823.208 2217.46 849.581 2207.23 862.225 2201.87 868.855 2201.74 869.49 2205.49 870.819 2212.96 873.465 2219.47 881.048 2219.26 886.861 2219.08 891.977 2218.86 891.815 2216.96 885.219 2214.83 877.853 2209.19 874.193 2194.65 870.746 2189.58 869.544 2186.93 870.837 2178.48 878.618L2168.38 887.928 2180.37 890.322C2194.13 893.069 2204.06 898.807 2205.67 904.938 2206.72 908.971 2206.92 908.987 2209.93 905.265 2212.81 901.7 2212.88 901.788 2210.71 906.265 2207.83 912.218 2201.81 915.684 2194.35 915.684L2188.8 915.684ZM2203.27 910.077C2205.32 904.728 2202.91 904.21 2198.53 909.056 2194.87 913.092 2194.85 913.479 2198.24 913.479 2200.29 913.479 2202.55 911.948 2203.27 910.077ZM2007.25 911.92C2009.99 911.392 2013.96 911.412 2016.07 911.961 2018.18 912.513 2015.93 912.944 2011.08 912.92 2006.23 912.895 2004.51 912.444 2007.25 911.917ZM2214.09 897.402C2214.92 895.228 2216.15 894.005 2216.83 894.684 2217.51 895.363 2216.83 897.141 2215.33 898.636 2213.15 900.797 2212.9 900.544 2214.09 897.402ZM2062.49 896.543C2064.08 895.906 2065.98 895.984 2066.71 896.717 2067.45 897.449 2066.14 897.97 2063.82 897.874 2061.25 897.769 2060.73 897.246 2062.49 896.543ZM2082.75 896.33 2090.46 895.317 2082.75 892.295 2075.03 889.273 2084.95 890.347C2092.1 891.12 2093.64 890.848 2090.46 889.378 2086.87 887.714 2086.74 887.308 2089.76 887.182 2091.79 887.097 2095.02 885.461 2096.94 883.548 2099.42 881.067 2102.39 880.504 2107.31 881.583 2112.31 882.68 2113.37 883.613 2111.17 884.97 2109.51 886 2106.01 886.308 2103.4 885.654 2100.8 885 2097.94 885.646 2097.04 887.084 2095.9 888.938 2096.79 889.269 2100.11 888.216 2107.47 885.882 2105.59 889.185 2098.07 891.805 2094.37 893.094 2091.81 894.614 2092.37 895.181 2094.17 896.975 2112.17 887.896 2121.12 880.681 2125.86 876.866 2130.24 874.247 2130.85 874.861 2133.13 877.141 2123.56 885.018 2110.72 891.433 2100.64 896.468 2094.8 897.964 2086.25 897.695 2076.99 897.405 2076.38 897.165 2082.75 896.33ZM2028.72 881.227C2000.97 870.025 2007.63 869.566 2037.75 880.605L2057.81 887.955 2079.65 878.305C2105.11 867.055 2132.8 856.166 2135.94 856.166 2137.15 856.166 2137.56 857.09 2136.87 858.219 2136.17 859.347 2136.61 860.894 2137.84 861.655 2141.21 863.738 2140.54 866.54 2136.28 868.174 2133.92 869.079 2131.44 868.216 2129.75 865.903 2126.79 861.854 2125.53 862.148 2102.59 872.257 2073.1 885.255 2057.83 891.413 2055.54 891.227 2054.13 891.113 2042.06 886.613 2028.72 881.228ZM2110.33 880.45C2106.65 879.137 2107.69 878.112 2116.74 874.111 2122.67 871.486 2128.04 869.847 2128.66 870.468 2129.28 871.088 2128.77 871.596 2127.52 871.596 2126.27 871.596 2122.88 873.941 2119.98 876.807 2116.27 880.481 2113.43 881.555 2110.33 880.45ZM2158.45 863.711C2158.45 861.732 2163.28 856.508 2169.19 852.102 2181.41 842.984 2181.98 843.569 2155.61 838.349 2136.97 834.659 2142.91 832.741 2162.27 836.199 2171.95 837.93 2178.6 840.437 2181.23 843.35 2185.21 847.75 2185.12 847.978 2176.65 855.307 2167.43 863.28 2161.89 865.298 2166.72 858.922 2169.24 855.592 2169.2 855.456 2166.43 857.93 2164.67 859.506 2163.23 861.903 2163.23 863.257 2163.23 864.611 2162.16 866.077 2160.84 866.515 2159.53 866.952 2158.46 865.69 2158.46 863.711ZM2176.59 853.04C2178.94 851.321 2180.36 849.405 2179.73 848.782 2179.11 848.16 2176.14 849.544 2173.12 851.86 2166.85 856.68 2170.1 857.787 2176.59 853.04ZM2197.41 855.477C2197.41 855.098 2200.64 851.873 2204.58 848.313L2211.74 841.839 2205.27 849.002C2199.23 855.68 2197.41 857.18 2197.41 855.477ZM2141.18 842.566C2135.08 838.45 2134.99 838.225 2140.08 839.645 2143.11 840.492 2150.77 841.876 2157.09 842.721 2172.79 844.82 2174.32 847.384 2159.74 847.188 2151.61 847.078 2145.69 845.603 2141.18 842.566ZM2236.3 843.417C2235.71 842.467 2237.88 841.723 2241.13 841.764 2245.26 841.814 2246.95 840.756 2246.76 838.223 2246.42 833.649 2261.39 830.617 2263.96 834.738 2267.17 839.879 2273.49 833.207 2273.49 824.671 2273.49 818.668 2274.13 817.388 2276.24 819.147 2280.09 822.341 2279.69 830.811 2275.53 834.262 2273.61 835.847 2267.64 837.404 2262.25 837.721 2256.87 838.039 2250.92 839.839 2249.03 841.722 2245.41 845.344 2238.09 846.319 2236.3 843.417ZM2215.05 839.475C2215.05 836.218 2240.77 817.212 2242.64 819.085 2243.13 819.577 2237.13 824.626 2229.29 830.304 2221.46 835.983 2215.05 840.11 2215.05 839.475ZM2197.3 835.357C2201.59 830.191 2221.35 818.22 2224.09 819.131 2226.82 820.042 2211.2 831.295 2200.99 835.773 2195.5 838.18 2195.01 838.124 2197.3 835.357ZM2185.28 827.56C2191.35 823.991 2200.03 819.394 2204.58 817.343 2211.59 814.18 2212.85 812.562 2212.85 806.675 2212.85 799.156 2216.18 794.446 2221.5 794.446 2223.84 794.446 2223.38 795.48 2219.95 797.877 2214.95 801.378 2213.15 809.876 2217.4 809.876 2221.88 809.876 2228.4 805.236 2227.03 803.027 2225.19 800.036 2227.83 790.037 2230.48 790.037 2231.8 790.037 2231.78 792.15 2230.42 795.733 2229.23 798.865 2228.73 802.205 2229.32 803.153 2231.1 806.035 2223.82 811.01 2200.51 822.832 2176.05 835.236 2167.98 837.743 2185.28 827.56ZM2165.46 820.021C2160.89 815.445 2159.81 812.486 2160.35 805.987 2160.98 798.334 2161.5 797.785 2167.64 798.223 2181.26 799.192 2184.48 800.792 2182.02 805.377 2179.24 810.587 2182.93 821.726 2186.95 820.25 2188.46 819.697 2189.53 818.376 2189.33 817.315 2189.13 816.255 2191.36 815.244 2194.29 815.069 2206.99 814.311 2195.15 822 2179.86 824.446 2172.51 825.62 2170.42 824.977 2165.46 820.021ZM2179.8 819.826C2178.3 818.024 2177.48 813.064 2177.98 808.804 2178.88 801.147 2178.79 801.059 2170.51 801.059 2163 801.059 2162.13 801.642 2162.13 806.675 2162.13 813.239 2171.75 823.102 2178.16 823.102 2181.76 823.102 2182.05 822.536 2179.8 819.826ZM2265.91 812.825C2267.21 809.389 2269.61 805.088 2271.24 803.267 2276.75 797.093 2276.3 790.503 2269.91 783.645 2266.19 779.655 2263.76 778.902 2258.04 779.975 2252.73 780.97 2250.51 780.444 2249.56 777.966 2247.94 773.766 2242.87 773.625 2239.5 777.686 2238.09 779.38 2234.99 780.256 2232.61 779.633 2229.48 778.816 2228.23 779.642 2228.11 782.617 2228.01 785.066 2227.47 785.586 2226.8 783.901 2226.17 782.345 2226.8 779.695 2228.2 778.012 2231.66 773.846 2247.87 771.261 2250.99 774.378 2252.33 775.717 2256.61 776.812 2260.5 776.812 2265.7 776.812 2269.1 778.614 2273.29 783.594 2276.43 787.324 2279 791.853 2279 793.658 2279 797.978 2274.66 805.985 2270.77 808.859 2269.06 810.117 2267.98 812.473 2268.37 814.094 2268.76 815.715 2267.83 817.498 2266.3 818.057 2264.14 818.848 2264.06 817.689 2265.91 812.825ZM2251.8 804.524C2251.14 802.793 2247.81 801.057 2244.4 800.667 2239.63 800.12 2238.08 798.688 2237.68 794.446 2237.15 789.015 2237.18 789.008 2239.26 793.895 2241.5 799.147 2244.77 800.307 2247.03 796.65 2249.35 792.9 2252.54 794.218 2252.54 798.926 2252.54 801.511 2254.64 804.249 2257.5 805.399 2262.41 807.371 2262.41 807.394 2257.74 807.533 2255.14 807.608 2252.47 806.256 2251.8 804.525Z" stroke="#FFFFFF" stroke-width="2.29167" stroke-miterlimit="8" fill="#FFFFFF" fill-rule="evenodd"/><text fill="#FFFFFF" font-family="Arial Rounded MT Bold,Arial Rounded MT Bold_MSFontService,sans-serif" font-weight="700" font-size="92" transform="matrix(1 0 0 1 1884.88 1118)">COPIERS<tspan font-family="Arial Black,Arial Black_MSFontService,sans-serif" font-weight="900" font-size="110" x="-51.062" y="97">MARKET</tspan></text></g></svg>