<svg width="2128" height="1342" xmlns="http://www.w3.org/2000/svg" xmlns:xlink="http://www.w3.org/1999/xlink" overflow="hidden"><defs><clipPath id="clip0"><rect x="504" y="479" width="2128" height="1342"/></clipPath></defs><g clip-path="url(#clip0)" transform="translate(-504 -479)"><path d="M1487 483C1381.42 665.315 1275.84 847.629 1177.83 904.666 1079.83 961.703 1010.11 675.5 898.975 825.222 787.837 974.944 649.418 1388.97 511 1803" stroke="#FFFFFF" stroke-width="13.75" stroke-miterlimit="8" stroke-opacity="0.2" fill="none" fill-rule="evenodd"/><path d="M2024 483C1972.07 679.548 1920.13 876.097 1780.14 998.939 1640.15 1121.78 1333.07 1086.05 1184.05 1220.06 1035.02 1354.07 960.512 1578.53 886 1803" stroke="#FFFFFF" stroke-width="13.75" stroke-miterlimit="8" stroke-opacity="0.2" fill="none" fill-rule="evenodd"/><path d="M2625 585C2569.61 838.277 2514.22 1091.55 2433.65 1243.44 2353.09 1395.33 2232.24 1468.49 2141.6 1496.32 2050.96 1524.15 1998.93 1357.16 1889.83 1410.44 1780.73 1463.72 1633.87 1639.86 1487 1816" stroke="#FFFFFF" stroke-width="13.75" stroke-miterlimit="8" stroke-opacity="0.2" fill="none" fill-rule="evenodd"/></g></svg>